<svg height="966pt" preserveAspectRatio="xMidYMid meet" viewBox="0 0 1164 966" width="1164pt" xmlns="http://www.w3.org/2000/svg"><g transform="matrix(.1 0 0 -.1 0 966)"><path d="m5733 9025c-48-21-108-87-128-141-10-27-24-54-31-60-11-8-9-23 10-78l22-67 10 36c11 43 27 47 35 8 14-71 87-120 162-110 39 5 78 35 89 67 7 23 38-3 50-42 6-22 21-44 34-51 20-11 21-14 8-32-20-27-109-25-193 4-35 12-65 20-68 17-7-7 35-83 68-120 20-23 36-33 46-29s14 2 10-4c-8-13 14-23 49-23 23 0 34 9 68 55 15 19 15 19 16-7 0-35-51-85-95-94-61-11-102 4-189 70l-84 63 6-41c3-22 12-47 19-55 18-17 33-56 33-82 0-11 7-27 15-35 17-18 20-74 4-74-13 0-8-42 6-47 22-7 73 37 95 82 12 25 24 44 27 41 8-8-28-75-53-99-12-12-40-27-60-33-44-12-51-25-28-48 12-13 14-20 5-29-20-20-12-23 47-23 56 1 57 2 55 28-2 31 17 39 60 25 21-7 27-15 27-37 0-47-24-63-84-54-28 3-61 10-74 15-40 15-68 10-80-13-8-18-11-19-11-5-1 20-1 20-38 6-25-9-26-12-10-20 9-6 21-8 26-5s15-2 22-11c10-12 10-14 2-9-7 4-13 2-13-3 0-6-9-11-20-11s-20 4-20 9c0 4-33 11-72 14-93 9-118 16-118 34 0 20 109 222 142 263 26 32 28 41 28 118 0 66 3 84 16 89s13 7 2 14c-10 7-9 9 5 9 25 0 21 25-17 93-40 70-54 134-37 165 10 18 5 27-40 72-59 59-124 95-212 115-82 19-156 7-249-39-60-30-75-34-126-30-135 11-191-87-163-281l7-50 23 50c27 62 44 75 97 75 50 0 63-14 38-41-17-18-16-19 13-19 26 0 32-6 52-55 19-45 21-58 11-70-11-13-8-15 16-15 17-1 43-13 64-30 19-17 40-30 47-30 19 0 17-11-28-118-66-160-157-313-241-407-60-67-64-77-73-174-6-78-5-84 9-71 15 12 16 10 6-14-14-38-14-38 21-20 25 12 30 21 26 40-3 16 0 24 9 24 16 0 18-24 4-49-14-27-69-48-80-31-6 9-14 2-28-26-20-39-79-88-234-194-82-55-108-80-207-197-47-56-76-79-130-106-87-44-177-57-215-32-59 39-231 1-265-57-17-30-39-36-59-16-10 10-15 10-22-1-7-12-17-12-66 4-56 17-62 17-138 2-44-10-87-24-96-32-19-17-66-20-75-5-3 5-12 7-20 4-8-4-36 8-62 26l-48 32-105-6c-119-8-164-25-195-74l-20-32-75 5c-41 3-145 15-230 27-94 13-170 18-192 14-45-8-103-63-128-121-18-44-56-185-66-252-6-40-5-43 20-53 23-8 46-2 144 36 111 43 319 94 387 94 22 0 40-9 60-30 16-17 45-34 65-39 64-17 277-34 351-29 61 5 99-1 233-32 89-21 178-45 199-54 43-19 41-30-13-81-41-38-150-169-222-265-140-189-271-445-334-655-167-548-90-1162 211-1680 438-755 1297-1185 2205-1105 1050 93 1953 839 2211 1825 52 201 72 357 72 580 0 234-21 392-79 600-36 129-124 351-171 432-28 47-29 121-3 133 96 44 105 62 66 143-48 102-111 123-199 67-39-24-46-26-37-11 17 32 12 38-46 54-43 12-67 27-99 60-33 35-46 42-59 35-20-11-116-1-116 13 0 27 114 39 132 14 4-5 8 2 8 17 0 30-32 47-54 29-9-8-21-1-47 25-50 53-209 171-324 241-120 73-310 162-435 203-49 17-117 46-149 65-33 19-62 35-64 35-3 0-37 18-75 40-40 22-107 49-156 61-96 24-141 56-130 93 21 68 58 117 179 239 59 58 102 111 115 139 26 58 50 175 50 241 0 75 8 83 56 59 22-11 66-27 99-36 33-10 68-20 78-23 11-3 67-46 125-96 129-111 254-206 319-243 26-15 64-42 83-59 63-57 99-78 114-66 11 9 20 5 42-19 16-17 41-38 56-46 18-9 33-32 48-71 11-31 39-78 62-105 43-52 43-48 21-167-4-24-2-32 6-27 7 5 11-4 11-27 0-55-11-97-26-97-20 0-30-29-32-86-3-77 2-79 187-76 194 4 215 7 251 44 50 50 42 56-64 50-51-2-128-1-170 3l-76 7 5 129c5 141 11 179 29 179 6 0 5 4-3 9s-11 16-8 25c5 14 10 14 26 4 11-7 17-17 14-23-4-7-2-7 5 0 17 17 42 103 42 146 0 33-6 47-31 70l-30 28 19 168c20 169 18 193-14 193-16 0-18-6-48-178-13-73-26-136-30-139-3-3-15 2-26 12-18 16-19 20-5 27 8 5 15 17 15 27 0 20-23 45-33 35-8-8-77 35-77 48 0 6 8 7 18 4 14-5 14-4-2 9-11 8-28 15-39 15-10 0-46 25-79 55s-112 91-175 137c-180 131-303 224-363 273-30 25-94 64-143 87-72 34-91 48-109 80-12 21-24 38-27 38s-21 13-40 29l-34 28 18 52c9 29 24 55 34 58 68 24 80 94 29 161-28 36-38 42-69 42-25 0-47-8-67-25-42-35-64-32-93 12-40 62-130 92-175 58-22-16-54-20-54-5 0 17 24 65 44 88 31 35 85 45 174 32 85-13 154-39 189-72 22-20 23-20 23-3 0 24-114 135-162 158-44 21-140 22-185 2zm207-525c24 0 25-8 4-38-30-43-142-15-160 41-15 44-13 44 62 21 41-13 84-24 94-24zm-662-792c1-46 5-91 8-100 4-13 0-18-13-18-11 0-24-5-31-12-9-9-23-6-62 12-27 13-50 25-50 28 0 2 31 38 70 80 38 43 70 80 70 85 0 4 1 7 3 7 1 0 4-37 5-82zm1717-7c3-5 1-12-5-16-5-3-10 1-10 9 0 18 6 21 15 7zm-15-26c11-14 7-22-25-55-42-43-53-48-61-26-7 17 44 96 61 96 7 0 18-7 25-15zm-1642-97c-5-34-38-37-38-4 0 20 5 26 21 26 15 0 20-5 17-22zm-498-17c0-10-8-28-17-38-22-24-70-45-78-33-11 17 14 57 47 73 43 21 48 21 48-2zm-10-85c0-29-17-48-59-66-38-15-41-13-34 23 4 19 17 34 42 47 47 25 51 25 51-4zm100-192c45-18 63-42 50-64-7-12-14-12-45 3-69 33-162 10-185-46-7-17-8-13-4 18 8 59 10 63 46 85 40 24 84 25 138 4zm97-130c25-28 23-37-13-48-29-9-70 39-53 60s39 17 66-12zm-210-41c7-20-52-74-72-67-10 4-29-2-45-15-30-21-50-27-50-13s87 92 103 92c9 0 19 5 22 11 9 13 37 8 42-8zm-195-95c-17-17-82-27-82-14 0 19 62 46 78 33 8-6 9-14 4-19zm-787-28c-4-7-65-20-65-14 0 20 15 30 40 26 17-2 28-8 25-12zm-818-51c19-12 31-25 26-29-11-10-123-22-123-13 0 8 51 63 58 63 3 0 20-10 39-21zm822-1c0-7-6-29-13-48-12-33-15-35-119-61-59-15-107-24-107-22 0 25 27 86 42 94s18 6 18-17 3-25 23-20c12 4 34 9 49 12 18 4 30 16 37 34 8 26 16 30 64 39 4 0 7-5 6-11zm-391-95c-5-21-13-41-16-45-9-9-221-33-228-25-3 3 0 23 6 46 9 34 15 41 35 41s25-5 25-24c0-22 3-24 43-19 62 7 67 10 67 38 0 22 4 25 39 25h39zm-700-28c-5-24-4-25 57-25 56 0 63 2 73 25 9 18 19 25 41 25h30l-16-45-15-45h-119c-65 0-119 3-119 8 0 4 5 24 11 45 8 30 14 37 36 37s25-4 21-25zm4106-82 29-15-31-30c-29-30-32-30-64-18-59 23-62 30-31 62 28 30 40 30 97 1zm66-63c22-11 40-24 40-28 0-5-13-21-30-37l-30-28-36 19c-19 10-38 23-41 27-4 7 44 67 54 67 2 0 22-9 43-20zm-354-584c12-8 49-53 83-100 74-102 90-159 71-249-6-31-15-59-19-61-4-3-27 22-51 54-24 33-45 60-47 60s-17-16-34-35c-33-38-139-95-176-95-20 0-23-5-23-39 0-41-17-101-30-101-4 0-26 27-49 60l-42 59-38-38c-48-48-117-76-165-67-35 7-65 41-81 95-4 13-30 55-58 93-47 65-53 69-81 64-50-10-100-41-123-75-21-31-21-34-6-55l16-21 58 18c76 26 97 15 177-92 53-71 62-90 62-125 0-71-12-72-64-1l-47 65-26-31c-61-72-182-101-228-55-47 47-56 165-21 251 24 58 92 122 152 145 30 11 60 20 67 20 7-1 35-33 62-72l50-71 6 66c9 109 72 180 171 193 34 5 52 2 72-11 38-25 128-152 148-210 9-27 17-44 18-37 0 6 11 12 24 12 14 0 27 4 30 9 3 4 19 11 34 14 56 11 110 91 111 165l1 34-26-32c-33-39-73-59-135-69-27-5-48-6-45-4 2 2-7 15-20 28-26 26-32 82-15 128 32 85 178 154 237 113zm-2788-452 23-35-21-35c-12-19-28-34-36-34s-14-4-14-8-11-21-25-37c-13-17-36-45-52-64l-27-34-23 27c-13 15-23 35-23 44 0 21 48 75 60 67 4-3 6 4 3 15-4 13 4 29 24 47 16 16 38 40 47 56 24 36 36 34 64-9zm1696-41 47-63 20-172c11-95 18-179 17-188-2-8-22 12-48 47-36 49-49 61-65 56-11-3-24-6-29-7-8-1-39 217-45 307-1 5-22-10-47-32-26-22-50-38-55-35-19 11-7 33 38 70 26 21 60 52 76 67 16 16 33 25 37 20 4-4 28-36 54-70zm-325-132c45-60 53-78 59-134 7-51 15-74 46-115 21-29 36-57 34-63s-23 17-47 50c-48 66-47 66-86 51l-26-10 45-59c50-65 66-98 66-138 0-23-7-17-51 41-38 50-55 66-67 61-33-13-37-10-40 28-2 22-8 37-16 37s-57-18-110-40-98-40-101-40c-16 0 2 45 54 129 33 53 76 131 97 173 32 66 58 94 86 97 3 1 29-30 57-68z"/><path d="m5891 8471c-9-6-7-10 8-14 12-3 21-1 21 3 0 14-15 19-29 11z"/><path d="m4781 7547c-6-8-8-17-4-20 3-4 1-7-5-7-7 0-12-4-12-10 0-5 8-7 18-3 18 6 42 32 42 45s-27 9-39-5z"/><path d="m4781 7471c-21-13-25-52-6-44 14 5 35 34 35 47 0 9-13 7-29-3z"/><path d="m6775 6720c-16-27 44-40 65-15 10 12 10 15-1 15-8 0-24 3-35 6-12 3-25 0-29-6z"/><path d="m6860 6644c0-8-4-12-10-9-5 3-10 4-10 1s13-12 29-20c26-14 30-14 45 3 18 19 12 33-10 24-8-3-14 0-14 6s-7 11-15 11-15-7-15-16z"/><path d="m6418 6021-33-30 18-33c10-18 27-44 38-57 18-21 22-22 50-10 32 13 69 61 69 90 0 9-9 28-21 43-29 37-78 36-121-3z"/><path d="m6068 5878c-15-13-28-30-30-40-2-9 17-45 42-80 41-58 44-67 41-115-3-58 3-63 41-34 52 41 63 180 21 253-25 43-75 50-115 16z"/><path d="m5755 5606c-16-7-41-25-53-39l-24-25 38-51c21-28 45-51 52-51 8 0 29 15 48 34 43 43 48 105 12 130-27 19-34 19-73 2z"/><path d="m3733 5629c4-15 2-19-9-15-20 8-17-7 8-39l21-27 14 26c12 22 11 29-3 51-20 30-38 33-31 4z"/><path d="m3677 5574c-3-3-3-13 0-22 4-10 2-13-5-8-15 9-15-3 2-33l13-24 16 23c14 20 14 25 0 46-17 26-17 27-26 18z"/><path d="m3617 5494c-3-3-3-13 0-22 4-10 2-13-5-8-16 10-15-15 2-36 12-17 14-17 31 2 15 17 16 24 7 45-11 25-23 31-35 19z"/><path d="m5001 5332c-6-15-25-48-41-72s-28-46-26-47c2-2 33 8 70 23 61 25 65 29 60 53-8 32-31 71-43 71-5 0-14-13-20-28z"/><path d="m6082 8820c0-14 2-19 5-12 2 6 2 18 0 25-3 6-5 1-5-13z"/><path d="m5928 8583c-10-2-18-9-18-15 0-5 7-7 16-4s22 6 30 6 14 5 14 10c0 10-12 11-42 3z"/><path d="m6954 7082c-11-74-7-202 6-202 5 0 12 29 15 64l7 65 37 3c32 3 36 6 37 33 1 30 1 30-3 2-4-25-8-28-36-25-31 3-32 5-37 60-3 31-8 59-11 62s-10-25-15-62z"/><path d="m6993 6593c9-2 23-2 30 0 6 3-1 5-18 5-16 0-22-2-12-5z"/></g></svg>